solid Exported from Blender-2.92.0
facet normal -1.000000 0.000000 0.000000
outer loop
vertex -0.732879 -0.732879 0.267121
vertex -0.732879 -0.732879 1.732879
vertex -0.732879 0.732879 1.732879
endloop
endfacet
facet normal -1.000000 0.000000 0.000000
outer loop
vertex -0.732879 -0.732879 0.267121
vertex -0.732879 0.732879 1.732879
vertex -0.732879 0.732879 0.267121
endloop
endfacet
facet normal 0.000000 1.000000 0.000000
outer loop
vertex -0.732879 0.732879 0.267121
vertex -0.732879 0.732879 1.732879
vertex 0.732879 0.732879 1.732879
endloop
endfacet
facet normal 0.000000 1.000000 0.000000
outer loop
vertex -0.732879 0.732879 0.267121
vertex 0.732879 0.732879 1.732879
vertex 0.732879 0.732879 0.267121
endloop
endfacet
facet normal 1.000000 0.000000 0.000000
outer loop
vertex 0.732879 0.732879 0.267121
vertex 0.732879 0.732879 1.732879
vertex 0.732879 -0.732879 1.732879
endloop
endfacet
facet normal 1.000000 0.000000 0.000000
outer loop
vertex 0.732879 0.732879 0.267121
vertex 0.732879 -0.732879 1.732879
vertex 0.732879 -0.732879 0.267121
endloop
endfacet
facet normal 0.000000 -1.000000 0.000000
outer loop
vertex 0.732879 -0.732879 0.267121
vertex 0.732879 -0.732879 1.732879
vertex -0.732879 -0.732879 1.732879
endloop
endfacet
facet normal 0.000000 -1.000000 0.000000
outer loop
vertex 0.732879 -0.732879 0.267121
vertex -0.732879 -0.732879 1.732879
vertex -0.732879 -0.732879 0.267121
endloop
endfacet
facet normal 0.000000 0.000000 -1.000000
outer loop
vertex -0.732879 0.732879 0.267121
vertex 0.732879 0.732879 0.267121
vertex 0.732879 -0.732879 0.267121
endloop
endfacet
facet normal 0.000000 0.000000 -1.000000
outer loop
vertex -0.732879 0.732879 0.267121
vertex 0.732879 -0.732879 0.267121
vertex -0.732879 -0.732879 0.267121
endloop
endfacet
facet normal 0.000000 0.000000 1.000000
outer loop
vertex 0.732879 0.732879 1.732879
vertex -0.732879 0.732879 1.732879
vertex -0.732879 -0.732879 1.732879
endloop
endfacet
facet normal 0.000000 0.000000 1.000000
outer loop
vertex 0.732879 0.732879 1.732879
vertex -0.732879 -0.732879 1.732879
vertex 0.732879 -0.732879 1.732879
endloop
endfacet
endsolid Exported from Blender-2.92.0
