solid Exported from Blender-2.92.0
facet normal 0.000000 0.607062 -0.794655
outer loop
vertex 0.500000 -0.688191 0.000000
vertex -0.500000 -0.688191 0.000000
vertex 0.000000 0.000000 0.525731
endloop
endfacet
facet normal 0.577350 0.187592 -0.794654
outer loop
vertex -0.500000 -0.688191 0.000000
vertex -0.809017 0.262866 0.000000
vertex 0.000000 0.000000 0.525731
endloop
endfacet
facet normal 0.356822 -0.491123 -0.794655
outer loop
vertex -0.809017 0.262866 0.000000
vertex 0.000000 0.850651 0.000000
vertex 0.000000 0.000000 0.525731
endloop
endfacet
facet normal -0.356822 -0.491123 -0.794655
outer loop
vertex 0.000000 0.850651 0.000000
vertex 0.809017 0.262866 0.000000
vertex 0.000000 0.000000 0.525731
endloop
endfacet
facet normal -0.577350 0.187592 -0.794654
outer loop
vertex 0.809017 0.262866 0.000000
vertex 0.500000 -0.688191 0.000000
vertex 0.000000 0.000000 0.525731
endloop
endfacet
facet normal -0.356821 -0.491122 -0.794656
outer loop
vertex 0.000000 -0.850651 -0.850651
vertex -0.809017 -0.262866 -0.850651
vertex 0.000000 0.000000 -1.376380
endloop
endfacet
facet normal -0.577349 0.187592 -0.794656
outer loop
vertex -0.809017 -0.262866 -0.850651
vertex -0.500000 0.688191 -0.850651
vertex 0.000000 0.000000 -1.376380
endloop
endfacet
facet normal 0.000000 0.607060 -0.794656
outer loop
vertex -0.500000 0.688191 -0.850651
vertex 0.500000 0.688191 -0.850651
vertex 0.000000 0.000000 -1.376380
endloop
endfacet
facet normal 0.577349 0.187592 -0.794656
outer loop
vertex 0.500000 0.688191 -0.850651
vertex 0.809017 -0.262866 -0.850651
vertex 0.000000 0.000000 -1.376380
endloop
endfacet
facet normal 0.356821 -0.491122 -0.794656
outer loop
vertex 0.809017 -0.262866 -0.850651
vertex 0.000000 -0.850651 -0.850651
vertex 0.000000 0.000000 -1.376380
endloop
endfacet
facet normal -0.577350 -0.794655 -0.187592
outer loop
vertex 0.000000 -0.850651 -0.850651
vertex -0.500000 -0.688191 0.000000
vertex -0.809017 -0.262866 -0.850651
endloop
endfacet
facet normal 0.934172 0.303531 -0.187593
outer loop
vertex -0.500000 -0.688191 0.000000
vertex -0.809017 -0.262866 -0.850651
vertex -0.809017 0.262866 0.000000
endloop
endfacet
facet normal -0.934172 0.303531 -0.187593
outer loop
vertex -0.809017 -0.262866 -0.850651
vertex -0.809017 0.262866 0.000000
vertex -0.500000 0.688191 -0.850651
endloop
endfacet
facet normal 0.577350 -0.794655 -0.187592
outer loop
vertex -0.809017 0.262866 0.000000
vertex -0.500000 0.688191 -0.850651
vertex 0.000000 0.850651 0.000000
endloop
endfacet
facet normal 0.000000 0.982247 -0.187593
outer loop
vertex -0.500000 0.688191 -0.850651
vertex 0.000000 0.850651 0.000000
vertex 0.500000 0.688191 -0.850651
endloop
endfacet
facet normal -0.577350 -0.794655 -0.187592
outer loop
vertex 0.000000 0.850651 0.000000
vertex 0.500000 0.688191 -0.850651
vertex 0.809017 0.262866 0.000000
endloop
endfacet
facet normal 0.934172 0.303531 -0.187593
outer loop
vertex 0.500000 0.688191 -0.850651
vertex 0.809017 0.262866 0.000000
vertex 0.809017 -0.262866 -0.850651
endloop
endfacet
facet normal -0.934172 0.303531 -0.187593
outer loop
vertex 0.809017 0.262866 0.000000
vertex 0.809017 -0.262866 -0.850651
vertex 0.500000 -0.688191 0.000000
endloop
endfacet
facet normal 0.577350 -0.794655 -0.187592
outer loop
vertex 0.809017 -0.262866 -0.850651
vertex 0.500000 -0.688191 0.000000
vertex 0.000000 -0.850651 -0.850651
endloop
endfacet
facet normal 0.000000 0.982247 -0.187593
outer loop
vertex 0.500000 -0.688191 0.000000
vertex 0.000000 -0.850651 -0.850651
vertex -0.500000 -0.688191 0.000000
endloop
endfacet
endsolid Exported from Blender-2.92.0
